<svg width="131" height="40" viewBox="0 0 131 40" fill="none" xmlns="http://www.w3.org/2000/svg">
<path d="M72.0168 6.56372C72.7817 6.56372 73.4093 6.79907 73.8997 7.26978C74.39 7.72087 74.6351 8.30925 74.6351 9.03491C74.6351 9.76058 74.39 10.3588 73.8997 10.8295C73.4093 11.3002 72.7817 11.5355 72.0168 11.5355C71.2716 11.5355 70.644 11.3002 70.134 10.8295C69.6437 10.3588 69.3986 9.76058 69.3986 9.03491C69.3986 8.32886 69.6437 7.74048 70.134 7.26978C70.644 6.79907 71.2716 6.56372 72.0168 6.56372ZM69.8987 30.2166V14.0361H74.1056V30.2166H69.8987Z" fill="#061224"/>
<path d="M88.4794 14.0361H92.6863V30.0106C92.6863 32.4034 91.9606 34.3156 90.5093 35.7473C89.058 37.1987 87.1163 37.9243 84.6843 37.9243C82.5858 37.9243 80.7618 37.3948 79.2124 36.3357C77.6826 35.2766 76.7706 33.737 76.4764 31.7169H80.8304C81.2619 33.3644 82.5073 34.1881 84.5667 34.1881C87.1751 34.1881 88.4794 32.8349 88.4794 30.1283V27.8042C87.2242 29.4909 85.5277 30.3342 83.3899 30.3342C81.2717 30.3342 79.5066 29.5497 78.0945 27.9807C76.702 26.4117 76.0057 24.421 76.0057 22.0087C76.0057 19.5963 76.7118 17.6056 78.1239 16.0366C79.536 14.4676 81.2913 13.6831 83.3899 13.6831C85.5473 13.6831 87.2438 14.5461 88.4794 16.272V14.0361ZM84.3313 26.3333C85.5277 26.3333 86.5181 25.9312 87.3026 25.1271C88.0871 24.323 88.4794 23.2835 88.4794 22.0087C88.4794 20.7535 88.0773 19.7238 87.2732 18.9197C86.4887 18.096 85.5081 17.6841 84.3313 17.6841C83.1545 17.6841 82.1739 18.096 81.3894 18.9197C80.6245 19.7238 80.2421 20.7535 80.2421 22.0087C80.2421 23.2639 80.6245 24.3034 81.3894 25.1271C82.1739 25.9312 83.1545 26.3333 84.3313 26.3333Z" fill="#061224"/>
<path d="M59.2804 22.0253C57.7703 21.7115 56.5543 21.3977 55.6325 21.0839C54.7107 20.77 53.8674 20.368 53.1025 19.8777C52.3376 19.407 51.7982 18.8186 51.4844 18.1125C51.151 17.4065 50.9843 16.5533 50.9843 15.5531C50.9843 14.4156 51.2295 13.4055 51.7198 12.5229C52.1905 11.66 52.8279 10.9931 53.632 10.5224C54.4165 10.0517 55.2501 9.69871 56.1326 9.46336C56.9956 9.22801 57.888 9.11033 58.8097 9.11033C61.6144 9.11033 63.7521 9.76735 65.2231 11.0814C66.6744 12.4151 67.5276 14.0821 67.7825 16.0826L63.5462 16.0826C63.252 15.0235 62.7519 14.2488 62.0458 13.7585C61.3202 13.2682 60.2513 13.0231 58.8392 13.0231C57.6624 13.0231 56.77 13.229 56.162 13.6409C55.5344 14.0527 55.2206 14.6313 55.2206 15.3766C55.2206 15.8473 55.3971 16.2199 55.7502 16.4945C56.0836 16.7887 56.4955 17.0044 56.9858 17.1417C57.4761 17.279 58.3488 17.4849 59.6041 17.7595C59.7021 17.7791 59.7806 17.7889 59.8394 17.7889C59.8786 17.8085 59.9473 17.8282 60.0453 17.8478C60.1238 17.8674 60.2022 17.887 60.2807 17.9066C61.3398 18.1223 62.2322 18.3577 62.9578 18.6127C63.6835 18.8676 64.3994 19.2207 65.1054 19.6717C65.8115 20.1228 66.3508 20.7014 66.7234 21.4075C67.0765 22.1135 67.253 22.9569 67.253 23.9375C67.253 25.9772 66.4881 27.5658 64.9583 28.7034C63.4285 29.8409 61.6045 30.4097 59.4864 30.4097C56.8975 30.4097 54.9362 29.8115 53.6026 28.6151C52.2493 27.4384 51.4452 25.9086 51.1902 24.0258L55.456 24.0258C55.9659 25.6732 57.2996 26.4969 59.457 26.4969C60.6533 26.4969 61.5457 26.2714 62.1341 25.8203C62.7225 25.3888 63.0167 24.8201 63.0167 24.114C63.0167 23.5452 62.7715 23.1334 62.2812 22.8784C61.7713 22.6234 60.771 22.3391 59.2804 22.0253Z" fill="#061224"/>
<path fill-rule="evenodd" clip-rule="evenodd" d="M111.324 15.3311C110.284 14.1935 108.852 13.6248 107.028 13.6248C104.953 13.6248 103.312 14.4288 102.106 16.0369V14.029H101.998V13.9778H97.7909V14.029H94.6344V17.7646H97.7909V30.1582H101.998V21.6561C101.998 18.9692 103.214 17.6257 105.646 17.6257C106.724 17.6257 107.499 17.9003 107.97 18.4495C108.441 18.9986 108.676 19.8224 108.676 20.9207V30.1582H112.883V20.0087C112.883 18.0278 112.363 16.4686 111.324 15.3311Z" fill="#061224"/>
<path fill-rule="evenodd" clip-rule="evenodd" d="M130.217 14.0361H126.01V22.5382C126.01 23.8523 125.696 24.8525 125.068 25.5389C124.46 26.2254 123.578 26.5686 122.421 26.5686C121.362 26.5686 120.597 26.294 120.126 25.7449C119.675 25.1957 119.449 24.372 119.449 23.2737V14.0361H115.242V24.1857C115.242 26.1469 115.752 27.7061 116.772 28.8633C117.812 30.0008 119.224 30.5696 121.009 30.5696C123.107 30.5696 124.774 29.7066 126.01 27.9807V30.2166H126.01V30.6243C126.01 31.8426 125.728 32.7254 125.17 33.3042C124.613 33.8819 123.766 34.1851 122.596 34.1851C121.671 34.1851 120.948 34 120.412 33.6455C119.879 33.2932 119.516 32.7632 119.327 32.0406L119.294 31.9164H114.976L115.004 32.1068C115.28 34.0021 116.139 35.4587 117.585 36.46L117.586 36.4605C119.04 37.454 120.748 37.948 122.704 37.948C124.972 37.948 126.8 37.2701 128.169 35.901C129.538 34.5499 130.217 32.7489 130.217 30.5163V30.2166H130.217V14.0361Z" fill="#061224"/>
<rect width="40" height="40" rx="9.92226" fill="#1064E5"/>
<path fill-rule="evenodd" clip-rule="evenodd" d="M31.0669 31.4788C28.2427 34.0677 24.6634 35.3621 20.329 35.3621C15.7396 35.3621 11.974 33.9304 9.0321 31.0669C6.10982 28.2231 4.64867 24.5163 4.64867 19.9466C4.64867 15.3964 6.07059 11.7093 8.91442 8.88503C11.7779 6.06081 15.465 4.6487 19.976 4.6487C22.2902 4.6487 24.379 5.04095 26.2422 5.82546L25.5067 9.26748C23.9377 8.54181 22.1333 8.17898 20.0936 8.17898C16.6222 8.17898 13.8078 9.22825 11.6504 11.3268C9.51261 13.4254 8.44372 16.3084 8.44372 19.976C8.44372 23.6239 9.54203 26.507 11.7386 28.6252C13.9549 30.7629 16.8477 31.8318 20.4172 31.8318C21.9863 31.8318 23.418 31.6063 24.7124 31.1552C26.0265 30.7237 27.1934 30.0569 28.2133 29.1547C29.2527 28.2721 30.0569 27.0856 30.6256 25.595C30.9249 24.8368 31.1481 24.0177 31.2951 23.1377C31.4739 21.449 31.5845 19.7433 31.2917 18.4196C31.1343 17.7084 30.8953 17.2876 30.6456 17.0474C30.4332 16.843 30.0594 16.6176 29.2661 16.6022C27.8585 16.5747 26.289 17.4673 24.6889 19.1419C23.1381 20.765 21.8323 22.8285 21.0314 24.3819C20.7196 24.9868 20.5041 25.4849 20.5041 25.4849L20.4214 25.4013L20.4211 25.4019L14.0418 18.9832L16.7419 16.2831L19.7286 19.2044C20.3774 18.284 21.1146 17.3553 21.928 16.504C23.7641 14.5823 26.3069 12.7251 29.3406 12.7843C30.9308 12.8153 32.2779 13.3188 33.2932 14.2957C34.2713 15.2368 34.7668 16.4497 35.0201 17.5947C35.2197 18.4971 35.2901 19.4663 35.2898 20.4173H35.3032V20.9174C35.3032 22.0602 35.2102 23.1415 35.0241 24.1615L35.019 24.2064L35.016 24.206C34.472 27.1399 33.1557 29.5641 31.0669 31.4788Z" fill="white"/>
</svg>
